<svg width="24" height="24" viewBox="0 0 24 24" fill="none" xmlns="http://www.w3.org/2000/svg">
<path d="M14.504 13.93C14.1019 14.4463 13.5486 14.8241 12.9214 15.0106C12.2942 15.1972 11.6244 15.1832 11.0056 14.9707C10.3867 14.7581 9.84965 14.3575 9.46945 13.825C9.08926 13.2924 8.88489 12.6544 8.88489 12C8.88489 11.3456 9.08926 10.7076 9.46945 10.175C9.84965 9.64245 10.3867 9.2419 11.0056 9.02934C11.6244 8.81677 12.2942 8.8028 12.9214 8.98937C13.5486 9.17594 14.1019 9.55373 14.504 10.07L17.25 8.5C16.4997 7.38138 15.4097 6.53351 14.1409 6.08144C12.872 5.62936 11.4915 5.59702 10.2029 5.98918C8.91428 6.38133 7.7858 7.17723 6.9839 8.25948C6.182 9.34173 5.74913 10.653 5.74913 12C5.74913 13.347 6.182 14.6583 6.9839 15.7405C7.7858 16.8228 8.91428 17.6187 10.2029 18.0108C11.4915 18.403 12.872 18.3706 14.1409 17.9186C15.4097 17.4665 16.4997 16.6186 17.25 15.5L14.504 13.93Z" stroke="#2A77B7" stroke-linecap="round" stroke-linejoin="round"/>
<path d="M2.966 6.706L11.466 1.337C11.6258 1.23606 11.811 1.18248 12 1.18248C12.189 1.18248 12.3742 1.23606 12.534 1.337L21.034 6.706C21.1767 6.79609 21.2942 6.92082 21.3757 7.06857C21.4571 7.21631 21.4999 7.38227 21.5 7.551V16.449C21.4999 16.6177 21.4571 16.7837 21.3757 16.9314C21.2942 17.0792 21.1767 17.2039 21.034 17.294L12.534 22.663C12.3742 22.7639 12.189 22.8175 12 22.8175C11.811 22.8175 11.6258 22.7639 11.466 22.663L2.966 17.294C2.82335 17.2039 2.70581 17.0792 2.62433 16.9314C2.54285 16.7837 2.50008 16.6177 2.5 16.449V7.55C2.50008 7.38127 2.54285 7.21531 2.62433 7.06757C2.70581 6.91982 2.82335 6.79609 2.966 6.706Z" stroke="#2A77B7" stroke-linejoin="round"/>
</svg>
