<svg width="16" height="16" viewBox="0 0 16 16" fill="none" xmlns="http://www.w3.org/2000/svg">
<path d="M5.95212 12.265C5.95212 12.265 5.35625 12.6118 6.37675 12.7288C7.61325 12.87 8.24512 12.8498 9.60737 12.5923C9.60737 12.5923 9.96625 12.8166 10.4665 13.0111C7.41162 14.3199 3.553 12.9353 5.95212 12.265ZM5.57862 10.5569C5.57862 10.5569 4.91012 11.0518 5.9315 11.1575C7.25237 11.2939 8.29525 11.305 10.1007 10.9575C10.1007 10.9575 10.3499 11.2106 10.7422 11.3489C7.0495 12.4289 2.9365 11.4339 5.57862 10.5569Z" fill="#0074BD"/>
<path d="M8.72525 7.65887C9.47838 8.52575 8.52775 9.30512 8.52775 9.30512C8.52775 9.30512 10.4389 8.31875 9.56138 7.083C8.7415 5.93112 8.113 5.359 11.5158 3.3855C11.5158 3.38562 6.17438 4.71925 8.72525 7.65887Z" fill="#EA2D2E"/>
<path d="M12.7654 13.5286C12.7654 13.5286 13.2065 13.8924 12.2794 14.1735C10.5166 14.7075 4.94113 14.8685 3.39263 14.1949C2.83625 13.9526 3.88 13.6167 4.20838 13.5459C4.55075 13.4717 4.74625 13.4852 4.74625 13.4852C4.12713 13.0494 0.744626 14.3415 3.02838 14.7121C9.256 15.7216 14.3805 14.2575 12.7654 13.5286ZM6.239 8.78675C6.239 8.78675 3.40325 9.46037 5.23488 9.70525C6.00838 9.80875 7.54963 9.785 8.98625 9.6645C10.16 9.56587 11.3379 9.35525 11.3379 9.35525C11.3379 9.35525 10.9244 9.53262 10.6249 9.73687C7.74463 10.4945 2.18188 10.1416 3.7835 9.36712C5.1375 8.71225 6.239 8.78675 6.239 8.78675ZM11.3261 11.6301C14.2538 10.1092 12.9 8.64762 11.9551 8.8445C11.7241 8.89262 11.6205 8.9345 11.6205 8.9345C11.6205 8.9345 11.7065 8.79962 11.8705 8.74162C13.7396 8.08475 15.1769 10.6795 11.2676 11.7072C11.2676 11.707 11.3125 11.6664 11.3261 11.6301Z" fill="#0074BD"/>
<path d="M9.56138 0.198372C9.56138 0.198372 11.1824 1.82037 8.0235 4.31375C5.49025 6.3145 7.44588 7.455 8.02263 8.75862C6.54375 7.4245 5.459 6.24987 6.18663 5.15675C7.25513 3.5525 10.2153 2.77437 9.56138 0.198372Z" fill="#EA2D2E"/>
<path d="M6.52675 15.7526C9.33625 15.9323 13.6518 15.6526 13.7539 14.3231C13.7539 14.3231 13.5575 14.8271 11.4318 15.227C9.0335 15.6785 6.075 15.6259 4.32088 15.3363C4.32088 15.3364 4.68025 15.6339 6.52675 15.7526Z" fill="#0074BD"/>
</svg>
