<svg width="16" height="16" viewBox="0 0 16 16" fill="none" xmlns="http://www.w3.org/2000/svg">
<mask id="mask0_21_56" style="mask-type:alpha" maskUnits="userSpaceOnUse" x="0" y="0" width="16" height="16">
<path fill-rule="evenodd" clip-rule="evenodd" d="M11.3459 15.8908C11.4732 15.9404 11.6094 15.9633 11.7459 15.958C11.8825 15.9528 12.0165 15.9195 12.1396 15.8603L15.4337 14.2751C15.6034 14.1935 15.7465 14.0656 15.8467 13.9062C15.9469 13.7467 16 13.5623 16 13.374V2.62613C16 2.43783 15.9469 2.25335 15.8467 2.09391C15.7466 1.93447 15.6034 1.80655 15.4337 1.72488L12.1396 0.140003C11.9535 0.0504408 11.7441 0.0209528 11.5405 0.0556197C11.3368 0.0902867 11.149 0.187394 11.003 0.333503L4.69675 6.08675L1.95 4.00163C1.82607 3.9076 1.67315 3.85989 1.51774 3.86679C1.36233 3.87368 1.21424 3.93474 1.09912 4.03938L0.218124 4.84075C0.149468 4.9032 0.0946007 4.97928 0.0570333 5.06415C0.0194658 5.14901 2.50097e-05 5.24078 -4.55834e-05 5.33359C-0.000116177 5.42639 0.019185 5.51819 0.0566233 5.60311C0.0940616 5.68803 0.148813 5.7642 0.217374 5.82675L2.5995 8L0.217499 10.1734C0.148975 10.2359 0.0942567 10.3121 0.0568417 10.397C0.0194267 10.4819 0.000138007 10.5737 0.000208593 10.6665C0.000279178 10.7593 0.0197075 10.851 0.0572516 10.9359C0.0947958 11.0207 0.14963 11.0968 0.218249 11.1593L1.09925 11.9606C1.21435 12.0653 1.36243 12.1264 1.51784 12.1333C1.67325 12.1402 1.82618 12.0925 1.95012 11.9985L4.69687 9.9135L11.0031 15.6666C11.1007 15.7642 11.2173 15.8405 11.3459 15.8908ZM12.0024 4.36788L7.2175 8L12.0025 11.6323L12.0024 4.36788Z" fill="white"/>
</mask>
<g mask="url(#mask0_21_56)">
<path d="M15.4339 1.7275L12.1371 0.140005C11.9509 0.0503283 11.7414 0.0207779 11.5377 0.0554474C11.334 0.0901168 11.1461 0.18729 11 0.333505L0.207749 10.1734C0.139173 10.2359 0.084409 10.3121 0.0469608 10.397C0.00951264 10.4819 -0.00979407 10.5737 -0.00972347 10.6665C-0.00965287 10.7593 0.00979348 10.8511 0.0473708 10.9359C0.0849481 11.0208 0.139828 11.0968 0.208499 11.1593L1.09 11.9606C1.20513 12.0654 1.35332 12.1266 1.50884 12.1335C1.66436 12.1404 1.81739 12.0927 1.94137 11.9985L14.9377 2.13913C15.3737 1.80838 16 2.11938 16 2.66663V2.62838C16 2.44014 15.9469 2.25572 15.8467 2.09633C15.7466 1.93694 15.6035 1.80918 15.4339 1.7275Z" fill="#0065A9"/>
<g filter="url(#filter0_d_21_56)">
<path d="M15.4339 14.2726L12.1371 15.8599C11.951 15.9496 11.7415 15.9792 11.5378 15.9446C11.334 15.9099 11.1461 15.8128 11 15.6666L0.207749 5.82663C0.139173 5.7641 0.084409 5.68795 0.0469608 5.60304C0.00951264 5.51813 -0.00979407 5.42633 -0.00972347 5.33353C-0.00965287 5.24073 0.00979348 5.14896 0.0473708 5.06411C0.0849481 4.97925 0.139828 4.90318 0.208499 4.84076L1.09 4.03938C1.20513 3.9346 1.35332 3.87344 1.50884 3.86652C1.66436 3.8596 1.81739 3.90736 1.94137 4.00151L14.9377 13.8608C15.3737 14.1916 16 13.8806 16 13.3334V13.3716C16 13.5599 15.9469 13.7443 15.8467 13.9037C15.7466 14.0631 15.6035 14.191 15.4339 14.2726Z" fill="#007ACC"/>
</g>
<g filter="url(#filter1_d_21_56)">
<path d="M12.1372 15.8603C11.951 15.9498 11.7415 15.9792 11.5378 15.9445C11.3341 15.9098 11.1462 15.8127 11 15.6666C11.369 16.0356 12 15.7743 12 15.2524V0.747502C12 0.225627 11.369 -0.0357484 11 0.333377C11.1462 0.187275 11.3341 0.0901728 11.5378 0.0554875C11.7415 0.0208023 11.951 0.0502466 12.1372 0.139752L15.4334 1.725C15.6031 1.80662 15.7463 1.93452 15.8466 2.09396C15.9468 2.2534 16 2.43791 16 2.62625V13.374C16 13.5623 15.9468 13.7469 15.8466 13.9063C15.7463 14.0657 15.6031 14.1936 15.4334 14.2753L12.1372 15.8603Z" fill="#1F9CF0"/>
</g>
<path opacity="0.25" fill-rule="evenodd" clip-rule="evenodd" d="M11.3362 15.8908C11.4636 15.9404 11.5997 15.9633 11.7362 15.958C11.8728 15.9528 12.0068 15.9195 12.1299 15.8603L15.424 14.2751C15.5937 14.1935 15.7368 14.0655 15.837 13.9061C15.9372 13.7467 15.9903 13.5622 15.9902 13.3739V2.62613C15.9903 2.43783 15.9372 2.25335 15.837 2.09391C15.7368 1.93447 15.5937 1.80655 15.424 1.72488L12.1299 0.140003C11.9437 0.0504408 11.7344 0.0209528 11.5307 0.0556197C11.3271 0.0902867 11.1393 0.187394 10.9932 0.333503L4.687 6.08675L1.94025 4.00175C1.81632 3.90772 1.6634 3.86002 1.50799 3.86691C1.35258 3.87381 1.20449 3.93487 1.08937 4.0395L0.208374 4.84088C0.139735 4.90333 0.0848833 4.97942 0.0473269 5.06428C0.00977049 5.14915 -0.00966433 5.24091 -0.00973491 5.33371C-0.0098055 5.42651 0.00948969 5.51831 0.0469169 5.60323C0.0843442 5.68814 0.13908 5.76432 0.207624 5.82688L2.58975 8L0.207749 10.1733C0.139188 10.2358 0.0844367 10.312 0.0469984 10.3969C0.00956009 10.4818 -0.00974111 10.5736 -0.00967052 10.6664C-0.00959992 10.7592 0.00984091 10.851 0.0474083 10.9359C0.0849758 11.0207 0.139843 11.0968 0.208499 11.1593L1.0895 11.9606C1.2046 12.0653 1.35268 12.1264 1.50809 12.1333C1.6635 12.1402 1.81643 12.0925 1.94037 11.9985L4.68725 9.91338L10.9935 15.6666C11.0911 15.7642 11.2078 15.8405 11.3362 15.8908ZM11.9927 4.36775L7.20775 8L11.9927 11.6321V4.36775Z" fill="url(#paint0_linear_21_56)"/>
</g>
<defs>
<filter id="filter0_d_21_56" x="-1.05147" y="2.82411" width="18.0932" height="14.1763" filterUnits="userSpaceOnUse" color-interpolation-filters="sRGB">
<feFlood flood-opacity="0" result="BackgroundImageFix"/>
<feColorMatrix in="SourceAlpha" type="matrix" values="0 0 0 0 0 0 0 0 0 0 0 0 0 0 0 0 0 0 127 0" result="hardAlpha"/>
<feOffset/>
<feGaussianBlur stdDeviation="0.520875"/>
<feColorMatrix type="matrix" values="0 0 0 0 0 0 0 0 0 0 0 0 0 0 0 0 0 0 0.25 0"/>
<feBlend mode="overlay" in2="BackgroundImageFix" result="effect1_dropShadow_21_56"/>
<feBlend mode="normal" in="SourceGraphic" in2="effect1_dropShadow_21_56" result="shape"/>
</filter>
<filter id="filter1_d_21_56" x="9.95825" y="-1.00041" width="7.0835" height="18.0008" filterUnits="userSpaceOnUse" color-interpolation-filters="sRGB">
<feFlood flood-opacity="0" result="BackgroundImageFix"/>
<feColorMatrix in="SourceAlpha" type="matrix" values="0 0 0 0 0 0 0 0 0 0 0 0 0 0 0 0 0 0 127 0" result="hardAlpha"/>
<feOffset/>
<feGaussianBlur stdDeviation="0.520875"/>
<feColorMatrix type="matrix" values="0 0 0 0 0 0 0 0 0 0 0 0 0 0 0 0 0 0 0.25 0"/>
<feBlend mode="overlay" in2="BackgroundImageFix" result="effect1_dropShadow_21_56"/>
<feBlend mode="normal" in="SourceGraphic" in2="effect1_dropShadow_21_56" result="shape"/>
</filter>
<linearGradient id="paint0_linear_21_56" x1="7.99025" y1="0.0412525" x2="7.99025" y2="15.9588" gradientUnits="userSpaceOnUse">
<stop stop-color="white"/>
<stop offset="1" stop-color="white" stop-opacity="0"/>
</linearGradient>
</defs>
</svg>
