<svg width="16" height="16" viewBox="0 0 16 16" fill="none" xmlns="http://www.w3.org/2000/svg">
<path d="M6.4125 2.2125H2.9C2.2 2.2125 1.625 2.7875 1.625 3.5C1.6 4.1875 2.15 4.7625 2.8375 4.7875H6.45L6.4125 2.2125Z" fill="#073042"/>
<path d="M14.375 13.6625H2.9C2.1875 13.6625 1.625 13.0875 1.625 12.375V3.4875C1.625 4.2 2.2 4.775 2.9 4.7875H12.5125C12.5125 4.7875 14.3875 4.625 14.3875 6.0375V13.6625H14.375Z" fill="#4285F4"/>
<path d="M9.025 9.1125C9.5375 8.725 9.6375 8 9.25 7.5C9.0375 7.225 8.7125 7.05 8.3625 7.0375H8.4C8.4625 7.025 8.5375 7.025 8.6 7.0375V6.325C8.6 6.2375 8.5625 6.1625 8.4875 6.125C8.375 6.0625 8.2375 6.1 8.175 6.2125C8.15 6.25 8.1375 6.2875 8.15 6.3375V7.0625C7.525 7.1625 7.0875 7.75 7.1875 8.3875V8.4C7.2375 8.7 7.4 8.975 7.65 9.15L5.5375 13.675H6.9125L7.8875 11.6C8 11.35 8.3 11.2375 8.5625 11.3625C8.6625 11.4125 8.75 11.5 8.8 11.6L9.8125 13.675H11.2125L9.025 9.1125ZM8.3125 8.9125C7.9125 8.9125 7.6 8.5875 7.6 8.1875C7.6 7.7875 7.925 7.475 8.325 7.4875C8.5125 7.4875 8.675 7.5625 8.8125 7.6875C9.1 7.9625 9.1 8.4125 8.825 8.7C8.7 8.825 8.5125 8.9125 8.3125 8.9125Z" fill="#3870B2"/>
<path d="M5.65 2.8375H10.575V3.7375H5.65V2.8375Z" fill="white"/>
<path d="M7.9375 7.475C8.325 7.475 8.65 7.8 8.6375 8.2C8.6375 8.5875 8.3125 8.9125 7.9125 8.9C7.525 8.9 7.2125 8.575 7.2125 8.1875C7.2125 8 7.2875 7.825 7.425 7.6875C7.5625 7.55 7.75 7.475 7.9375 7.475ZM8.2125 7.0625V6.3125C8.2125 6.225 8.175 6.15 8.1 6.1125C7.9875 6.05 7.85 6.0875 7.7875 6.2C7.7625 6.2375 7.75 6.275 7.7625 6.325V7.05C7.1375 7.15 6.7 7.7375 6.8 8.375V8.3875C6.85 8.6875 7.0125 8.9625 7.2625 9.1375L4.6 14.85C4.5 15.05 4.5125 15.3 4.65 15.4875C4.85 15.775 5.2375 15.85 5.525 15.65C5.625 15.5875 5.7 15.4875 5.75 15.3875L7.525 11.5875C7.6375 11.3375 7.9375 11.225 8.2 11.35C8.3 11.4 8.3875 11.4875 8.4375 11.5875L10.25 15.35C10.4 15.6625 10.775 15.7875 11.0875 15.6375C11.4 15.4875 11.525 15.1125 11.375 14.8L8.6375 9.1125C9.1375 8.7125 9.225 7.975 8.825 7.475C8.675 7.275 8.4625 7.1375 8.2125 7.0625Z" fill="#073042"/>
<path d="M9.85 3.6375C9.6625 3.6375 9.5125 3.5 9.5125 3.3125C9.5125 3.225 9.55 3.125 9.6125 3.0625C9.75 2.9375 9.95 2.9375 10.0875 3.0625C10.15 3.125 10.1875 3.2125 10.1875 3.3C10.175 3.4875 10.0375 3.625 9.85 3.6375ZM6.15 3.625C5.9625 3.625 5.8125 3.475 5.8125 3.3C5.8125 3.2125 5.85 3.125 5.9125 3.0625C6.025 2.925 6.2375 2.9 6.375 3.0125H6.3875C6.525 3.1375 6.5375 3.35 6.4125 3.4875L6.375 3.5375C6.3125 3.6 6.225 3.6375 6.1375 3.6375M9.95 1.6125L10.6125 0.4625C10.65 0.4 10.625 0.325 10.575 0.275C10.5125 0.25 10.45 0.2625 10.4125 0.3125L9.725 1.5C8.625 1.0125 7.375 1.0125 6.2875 1.5L5.6125 0.325C5.5875 0.2875 5.5375 0.25 5.4875 0.25C5.4375 0.25 5.3875 0.275 5.3625 0.325C5.3375 0.3625 5.3375 0.425 5.3625 0.4625L6.0375 1.6125C4.8625 2.25 4.1 3.45 3.9875 4.775H12.0125C11.9125 3.4375 11.1375 2.25 9.9625 1.6125" fill="#3DDC84"/>
<path d="M13.2 7.2625H12.675C12.65 7.275 12.625 7.3 12.625 7.3375V15.65C12.625 15.6875 12.65 15.7125 12.6875 15.7125H13.2375C13.875 15.7125 14.3875 15.1875 14.3875 14.5625V6.1C14.3875 6.7375 13.875 7.25 13.2375 7.25H13.2V7.2625Z" fill="#073042"/>
</svg>
